<?xml version="1.0" encoding="UTF-8" standalone="no"?>
<!-- Created with Inkscape (http://www.inkscape.org/) -->

<svg
   width="98.008003mm"
   height="97.995003mm"
   viewBox="0 0 98.008003 97.995003"
   version="1.1"
   id="svg11304"
   inkscape:version="1.1 (c68e22c387, 2021-05-23)"
   sodipodi:docname="logo.svg"
   xmlns:inkscape="http://www.inkscape.org/namespaces/inkscape"
   xmlns:sodipodi="http://sodipodi.sourceforge.net/DTD/sodipodi-0.dtd"
   xmlns="http://www.w3.org/2000/svg"
   xmlns:svg="http://www.w3.org/2000/svg">
  <sodipodi:namedview
     id="namedview11306"
     pagecolor="#505050"
     bordercolor="#ffffff"
     borderopacity="1"
     inkscape:pageshadow="0"
     inkscape:pageopacity="0"
     inkscape:pagecheckerboard="1"
     inkscape:document-units="mm"
     showgrid="false"
     inkscape:zoom="0.71446409"
     inkscape:cx="373.00685"
     inkscape:cy="354.8114"
     inkscape:window-width="1920"
     inkscape:window-height="991"
     inkscape:window-x="-9"
     inkscape:window-y="-9"
     inkscape:window-maximized="1"
     inkscape:current-layer="layer1" />
  <defs
     id="defs11301" />
  <g
     inkscape:label="Layer 1"
     inkscape:groupmode="layer"
     id="layer1">
    <g
       id="g14838"
       transform="translate(-91.348873,-51.360344)">
      <path
         id="rect10208"
         style="fill:#161616;stroke-width:7.56499;stroke-linecap:round;stroke-linejoin:round;paint-order:stroke fill markers"
         d="m 121.957,126.52176 h 36.79115 v 14.40223 H 121.957 Z" />
      <path
         id="path10210"
         style="fill:#161616;stroke-width:9.94188;stroke-linecap:round;stroke-linejoin:round;paint-order:stroke fill markers"
         inkscape:transform-center-x="-1.2779881e-05"
         inkscape:transform-center-y="-6.8540328"
         d="m 140.35258,126.7304 17.29556,22.62476 h -34.59113 z" />
      <path
         id="path10214"
         style="fill:#161616;fill-opacity:1;stroke-width:12.6652;stroke-linecap:round;stroke-linejoin:round;paint-order:stroke fill markers"
         d="m 189.35686,97.72813 h -13.58832 a 38.793509,40.490727 0 0 1 -0.25734,0.61081 38.793509,40.490727 0 0 1 -1.5627,3.13314 38.793509,40.490727 0 0 1 -1.81849,2.97915 38.793509,40.490727 0 0 1 -2.06034,2.80241 38.793509,40.490727 0 0 1 -2.28617,2.6045 38.793509,40.490727 0 0 1 -2.49494,2.38642 38.793509,40.490727 0 0 1 -2.6851,2.15025 38.793509,40.490727 0 0 1 -2.85461,1.89808 38.793509,40.490727 0 0 1 -3.00188,1.6309 38.793509,40.490727 0 0 1 -3.12643,1.35186 38.793509,40.490727 0 0 1 -3.22771,1.06195 38.793509,40.490727 0 0 1 -3.30419,0.76481 38.793509,40.490727 0 0 1 -3.35535,0.46096 38.793509,40.490727 0 0 1 -3.38119,0.15399 38.793509,40.490727 0 0 1 -3.38067,-0.15399 38.793509,40.490727 0 0 1 -3.35535,-0.46096 38.793509,40.490727 0 0 1 -3.30419,-0.76481 38.793509,40.490727 0 0 1 -3.22771,-1.06195 38.793509,40.490727 0 0 1 -3.12694,-1.35186 38.793509,40.490727 0 0 1 -3.00189,-1.6309 38.793509,40.490727 0 0 1 -2.85409,-1.89808 38.793509,40.490727 0 0 1 -2.6851,-2.15025 38.793509,40.490727 0 0 1 -2.49494,-2.38642 38.793509,40.490727 0 0 1 -2.28668,-2.6045 38.793509,40.490727 0 0 1 -2.05983,-2.80241 38.793509,40.490727 0 0 1 -1.81849,-2.97915 38.793509,40.490727 0 0 1 -1.5627,-3.13314 38.793509,40.490727 0 0 1 -0.25735,-0.61081 H 91.34889 a 51.49366,53.746508 0 0 0 49.00321,37.24527 51.49366,53.746508 0 0 0 49.00476,-37.24527 z" />
      <path
         id="path10230"
         style="fill:#161616;fill-opacity:1;stroke-width:7.72869;stroke-linecap:round;stroke-linejoin:round;paint-order:stroke fill markers"
         d="m 115.2942,62.77109 a 31.423049,32.79781 0 0 0 -6.36447,19.75848 31.423049,32.79781 0 0 0 31.42289,32.79748 31.423049,32.79781 0 0 0 31.42288,-32.79748 31.423049,32.79781 0 0 0 -6.34741,-19.76262 26.818579,28.570057 0 0 1 0.0982,0.27337 26.818579,28.570057 0 0 1 0.24081,0.72967 26.818579,28.570057 0 0 1 0.22273,0.73691 26.818579,28.570057 0 0 1 0.2036,0.74259 26.818579,28.570057 0 0 1 0.185,0.74828 26.818579,28.570057 0 0 1 0.16588,0.75344 26.818579,28.570057 0 0 1 0.14625,0.75757 26.818579,28.570057 0 0 1 0.12712,0.76171 26.818579,28.570057 0 0 1 0.10801,0.76533 26.818579,28.570057 0 0 1 0.0884,0.76792 26.818579,28.570057 0 0 1 0.0687,0.76997 26.818579,28.570057 0 0 1 0.0491,0.77205 26.818579,28.570057 0 0 1 0.0295,0.77308 26.818579,28.570057 0 0 1 0.01,0.77359 26.818579,28.570057 0 0 1 -0.0827,2.24173 26.818579,28.570057 0 0 1 -0.24753,2.22777 26.818579,28.570057 0 0 1 -0.41083,2.20038 26.818579,28.570057 0 0 1 -0.57154,2.15904 26.818579,28.570057 0 0 1 -0.72864,2.10478 26.818579,28.570057 0 0 1 -0.8816,2.03709 26.818579,28.570057 0 0 1 -1.02939,1.9575 26.818579,28.570057 0 0 1 -1.16944,1.86501 26.818579,28.570057 0 0 1 -1.3038,1.76164 26.818579,28.570057 0 0 1 -1.42937,1.64745 26.818579,28.570057 0 0 1 -1.54667,1.5229 26.818579,28.570057 0 0 1 -1.65365,1.38855 26.818579,28.570057 0 0 1 -1.7508,1.24644 26.818579,28.570057 0 0 1 -1.83709,1.09605 26.818579,28.570057 0 0 1 -1.91255,0.93896 26.818579,28.570057 0 0 1 -1.97559,0.7767 26.818579,28.570057 0 0 1 -2.02675,0.60875 26.818579,28.570057 0 0 1 -2.0655,0.4377 26.818579,28.570057 0 0 1 -2.09083,0.26355 26.818579,28.570057 0 0 1 -2.10427,0.0884 26.818579,28.570057 0 0 1 -2.10426,-0.0884 26.818579,28.570057 0 0 1 -2.09135,-0.26355 26.818579,28.570057 0 0 1 -2.06499,-0.4377 26.818579,28.570057 0 0 1 -2.02675,-0.60875 26.818579,28.570057 0 0 1 -1.97559,-0.7767 26.818579,28.570057 0 0 1 -1.91254,-0.93896 26.818579,28.570057 0 0 1 -1.8371,-1.09605 26.818579,28.570057 0 0 1 -1.7508,-1.24644 26.818579,28.570057 0 0 1 -1.65416,-1.38855 26.818579,28.570057 0 0 1 -1.54616,-1.5229 26.818579,28.570057 0 0 1 -1.42937,-1.64745 26.818579,28.570057 0 0 1 -1.30379,-1.76164 26.818579,28.570057 0 0 1 -1.16996,-1.86501 26.818579,28.570057 0 0 1 -1.02888,-1.9575 26.818579,28.570057 0 0 1 -0.8816,-2.03709 26.818579,28.570057 0 0 1 -0.72863,-2.10478 26.818579,28.570057 0 0 1 -0.57155,-2.15904 26.818579,28.570057 0 0 1 -0.41082,-2.20038 26.818579,28.570057 0 0 1 -0.24753,-2.22777 26.818579,28.570057 0 0 1 -0.0827,-2.24173 26.818579,28.570057 0 0 1 0.0827,-2.2412 26.818579,28.570057 0 0 1 0.24753,-2.22777 26.818579,28.570057 0 0 1 0.41082,-2.20039 26.818579,28.570057 0 0 1 0.57155,-2.15904 26.818579,28.570057 0 0 1 0.44752,-1.29294 z" />
      <path
         id="path10232"
         style="fill:#161616;fill-opacity:1;stroke:none;stroke-width:0.264583px;stroke-linecap:butt;stroke-linejoin:miter;stroke-opacity:1"
         d="m 139.38368,69.49471 c -0.49072,0.0135 -1.47226,0.14845 -1.47226,1.01183 v 4.96662 0.0279 c -8.44086,-4.06157 -14.66784,1.31155 -14.66784,1.31155 v 1.38906 l -3.34036,1.28985 v 10.9802 l 4.13411,4.13412 V 78.20167 c 8.49974,-4.66328 13.65912,0 13.65912,0 v 20.33984 c 0,0 -3.04271,-0.62838 -5.58932,-1.32291 -2.54662,-0.69453 -4.63021,-0.23151 -4.63021,-0.23151 0,0 5.35781,3.70417 12.13776,3.43958 V 75.62198 l -0.0661,-0.003 v -4.95829 h 1.9513 v 29.76562 h 0.0212 c 0.4679,0.0183 0.92877,0.017 1.38183,0 h 0.35192 v -0.0165 c 5.9374,-0.33563 10.40401,-3.42304 10.40401,-3.42304 0,0 -2.08359,-0.46302 -4.63021,0.23151 -2.54661,0.69453 -5.58932,1.32291 -5.58932,1.32291 V 78.20135 c 0,0 5.15938,-4.66328 13.65911,0 v 16.40417 l 4.13412,-4.13412 V 79.4912 l -3.34037,-1.28985 v -1.38906 c 0,0 -6.212,-5.35999 -14.63734,-1.32602 V 70.4933 c 0,-0.99027 -0.99426,-0.99426 -0.99426,-0.99426 h -2.60449 c 0,0 -0.10876,-0.009 -0.27234,-0.005 z" />
      <path
         style="fill:#161616;fill-opacity:1;stroke:none;stroke-width:0.264583px;stroke-linecap:butt;stroke-linejoin:miter;stroke-opacity:1"
         d="m 140.19957,59.85436 c 0,0 -0.53061,3.59985 -1.14592,4.81753 -0.6885,1.3625 -0.30402,4.0458 1.12253,3.95225 1.42655,-0.0935 2.45554,-2.36199 1.23946,-5.23848 -1.21607,-2.87649 -1.21607,-3.5313 -1.21607,-3.5313 z"
         id="path10234"
         sodipodi:nodetypes="cscsc" />
      <path
         style="color:#000000;fill:#161616;fill-opacity:1;stroke-width:0.964583;stroke-linecap:round;-inkscape-stroke:none"
         d="m 124.23577,65.36938 h 10.25261"
         id="path10236" />
      <path
         style="color:#000000;fill:#161616;fill-opacity:1;stroke-linecap:round;-inkscape-stroke:none"
         d="m 124.23642,64.88787 a 0.48229149,0.48229149 0 0 0 -0.48242,0.48242 0.48229149,0.48229149 0 0 0 0.48242,0.48047 h 10.25196 a 0.48229149,0.48229149 0 0 0 0.48242,-0.48047 0.48229149,0.48229149 0 0 0 -0.48242,-0.48242 z"
         id="path10238" />
      <path
         style="color:#000000;fill:#161616;fill-opacity:1;stroke-width:0.964583;stroke-linecap:round;-inkscape-stroke:none"
         d="m 135.01754,64.34412 -5.88698,-2.01745"
         id="path10242" />
      <path
         style="color:#000000;fill:#161616;fill-opacity:1;stroke-linecap:round;-inkscape-stroke:none"
         d="m 129.2872,61.87029 a 0.48229149,0.48229149 0 0 0 -0.61328,0.30078 0.48229149,0.48229149 0 0 0 0.30078,0.61133 l 5.88672,2.01758 a 0.48229149,0.48229149 0 0 0 0.61328,-0.29883 0.48229149,0.48229149 0 0 0 -0.30078,-0.61328 z"
         id="path10244" />
      <path
         style="color:#000000;fill:#161616;fill-opacity:1;stroke-width:0.964583;stroke-linecap:round;-inkscape-stroke:none"
         d="m 135.81129,63.15349 -4.72942,-2.61276"
         id="path10248" />
      <path
         style="color:#000000;fill:#161616;fill-opacity:1;stroke-linecap:round;-inkscape-stroke:none"
         d="m 130.94736,60.07732 a 0.48229149,0.48229149 0 0 0 -0.28711,0.23047 0.48229149,0.48229149 0 0 0 0.1875,0.6543 l 4.73047,2.61328 a 0.48229149,0.48229149 0 0 0 0.6543,-0.18945 0.48229149,0.48229149 0 0 0 -0.1875,-0.6543 l -4.73047,-2.61328 a 0.48229149,0.48229149 0 0 0 -0.36719,-0.041 z"
         id="path10250" />
      <path
         style="color:#000000;fill:#161616;fill-opacity:1;stroke-width:0.964583;stroke-linecap:round;-inkscape-stroke:none"
         d="M 136.17509,61.56599 132.1402,58.09334"
         id="path10254" />
      <path
         style="color:#000000;fill:#161616;fill-opacity:1;stroke-linecap:round;-inkscape-stroke:none"
         d="m 132.45517,57.72772 a 0.48229149,0.48229149 0 0 0 -0.67968,0.0508 0.48229149,0.48229149 0 0 0 0.0508,0.67968 l 4.03515,3.47264 a 0.48229149,0.48229149 0 0 0 0.67969,-0.0508 0.48229149,0.48229149 0 0 0 -0.0508,-0.67969 z"
         id="path10256" />
      <path
         style="color:#000000;fill:#161616;fill-opacity:1;stroke-width:0.964583;stroke-linecap:round;-inkscape-stroke:none"
         d="M 137.46494,60.01157 133.16546,53.9923"
         id="path10260" />
      <path
         style="color:#000000;fill:#161616;fill-opacity:1;stroke-linecap:round;-inkscape-stroke:none"
         d="m 132.88486,53.60076 a 0.48229149,0.48229149 0 0 0 -0.11133,0.67188 l 4.29883,6.01953 a 0.48229149,0.48229149 0 0 0 0.67383,0.11133 0.48229149,0.48229149 0 0 0 0.11133,-0.67188 l -4.29883,-6.01953 a 0.48229149,0.48229149 0 0 0 -0.67383,-0.11133 z"
         id="path10262" />
      <path
         style="color:#000000;fill:#161616;fill-opacity:1;stroke-width:0.964583;stroke-linecap:round;-inkscape-stroke:none"
         d="m 139.05244,59.31704 -1.91823,-4.49792"
         id="path10266" />
      <path
         style="color:#000000;fill:#161616;fill-opacity:1;stroke-linecap:round;-inkscape-stroke:none"
         d="m 136.94541,54.37615 a 0.48229149,0.48229149 0 0 0 -0.25391,0.63282 l 1.91797,4.49804 a 0.48229149,0.48229149 0 0 0 0.63281,0.25391 0.48229149,0.48229149 0 0 0 0.25391,-0.63281 l -1.91797,-4.49805 a 0.48229149,0.48229149 0 0 0 -0.63281,-0.25391 z"
         id="path10268" />
      <path
         style="color:#000000;fill:#161616;fill-opacity:1;stroke-width:0.964583;stroke-linecap:round;-inkscape-stroke:none"
         d="M 140.73916,58.49021 V 51.84256"
         id="path10272" />
      <path
         style="color:#000000;fill:#161616;fill-opacity:1;stroke-linecap:round;-inkscape-stroke:none"
         d="m 140.73838,51.36053 a 0.48229149,0.48229149 0 0 0 -0.48243,0.48242 v 6.64648 a 0.48229149,0.48229149 0 0 0 0.48243,0.48243 0.48229149,0.48229149 0 0 0 0.48242,-0.48243 v -6.64648 a 0.48229149,0.48229149 0 0 0 -0.48242,-0.48242 z"
         id="path10274" />
      <path
         style="color:#000000;fill:#161616;fill-opacity:1;stroke-width:0.964583;stroke-linecap:round;-inkscape-stroke:none"
         d="m 157.23147,65.36938 h -10.2526"
         id="path10278" />
      <path
         style="color:#000000;fill:#161616;fill-opacity:1;stroke-linecap:round;-inkscape-stroke:none"
         d="m 146.97926,64.88787 a 0.48229149,0.48229149 0 0 0 -0.48242,0.48242 0.48229149,0.48229149 0 0 0 0.48242,0.48047 h 10.25195 a 0.48229149,0.48229149 0 0 0 0.48243,-0.48047 0.48229149,0.48229149 0 0 0 -0.48243,-0.48242 z"
         id="path10280" />
      <path
         style="color:#000000;fill:#161616;fill-opacity:1;stroke-width:0.964583;stroke-linecap:round;-inkscape-stroke:none"
         d="m 146.4497,64.34412 5.88698,-2.01745"
         id="path10284" />
      <path
         style="color:#000000;fill:#161616;fill-opacity:1;stroke-linecap:round;-inkscape-stroke:none"
         d="m 152.18043,61.87029 -5.88672,2.01758 a 0.48229149,0.48229149 0 0 0 -0.30078,0.61328 0.48229149,0.48229149 0 0 0 0.61328,0.29883 l 5.88672,-2.01758 a 0.48229149,0.48229149 0 0 0 0.30078,-0.61133 0.48229149,0.48229149 0 0 0 -0.61328,-0.30078 z"
         id="path10286" />
      <path
         style="color:#000000;fill:#161616;fill-opacity:1;stroke-width:0.964583;stroke-linecap:round;-inkscape-stroke:none"
         d="m 145.65595,63.15349 4.72943,-2.61276"
         id="path10290" />
      <path
         style="color:#000000;fill:#161616;fill-opacity:1;stroke-linecap:round;-inkscape-stroke:none"
         d="m 150.15309,60.11834 -4.73047,2.61328 a 0.48229149,0.48229149 0 0 0 -0.18945,0.6543 0.48229149,0.48229149 0 0 0 0.65625,0.18945 l 4.72851,-2.61328 a 0.48229149,0.48229149 0 0 0 0.18946,-0.6543 0.48229149,0.48229149 0 0 0 -0.6543,-0.18945 z"
         id="path10292" />
      <path
         style="color:#000000;fill:#161616;fill-opacity:1;stroke-width:0.964583;stroke-linecap:round;-inkscape-stroke:none"
         d="m 145.29215,61.56599 4.0349,-3.47265"
         id="path10296" />
      <path
         style="color:#000000;fill:#161616;fill-opacity:1;stroke-linecap:round;-inkscape-stroke:none"
         d="m 149.01246,57.72772 -4.03515,3.47265 a 0.48229149,0.48229149 0 0 0 -0.0508,0.67969 0.48229149,0.48229149 0 0 0 0.67969,0.0508 l 4.03515,-3.47266 a 0.48229149,0.48229149 0 0 0 0.0508,-0.67968 0.48229149,0.48229149 0 0 0 -0.67969,-0.0508 z"
         id="path10298" />
      <path
         style="color:#000000;fill:#161616;fill-opacity:1;stroke-width:0.964583;stroke-linecap:round;-inkscape-stroke:none"
         d="m 144.00231,60.01157 4.29948,-6.01927"
         id="path10302" />
      <path
         style="color:#000000;fill:#161616;fill-opacity:1;stroke-linecap:round;-inkscape-stroke:none"
         d="m 148.58278,53.60076 a 0.48229149,0.48229149 0 0 0 -0.67383,0.11133 l -4.29883,6.01953 a 0.48229149,0.48229149 0 0 0 0.11133,0.67188 0.48229149,0.48229149 0 0 0 0.67383,-0.11133 l 4.29883,-6.01953 a 0.48229149,0.48229149 0 0 0 -0.11133,-0.67188 z"
         id="path10304" />
      <path
         style="color:#000000;fill:#161616;fill-opacity:1;stroke-width:0.964583;stroke-linecap:round;-inkscape-stroke:none"
         d="m 142.41481,59.31704 1.91823,-4.49792"
         id="path10308" />
      <path
         style="color:#000000;fill:#161616;fill-opacity:1;stroke-linecap:round;-inkscape-stroke:none"
         d="m 144.52223,54.37615 a 0.48229149,0.48229149 0 0 0 -0.63281,0.25391 l -1.91797,4.49805 a 0.48229149,0.48229149 0 0 0 0.25391,0.63281 0.48229149,0.48229149 0 0 0 0.63281,-0.25391 l 1.91797,-4.49804 a 0.48229149,0.48229149 0 0 0 -0.25391,-0.63282 z"
         id="path10310" />
      <path
         style="color:#000000;fill:#161616;fill-opacity:1;stroke-width:0.964583;stroke-linecap:round;-inkscape-stroke:none"
         d="M 140.72809,58.49021 V 51.84256"
         id="path10314" />
      <path
         style="color:#000000;fill:#161616;fill-opacity:1;stroke-linecap:round;-inkscape-stroke:none"
         d="m 140.72731,51.36053 a 0.48229149,0.48229149 0 0 0 -0.48242,0.48242 v 6.64648 a 0.48229149,0.48229149 0 0 0 0.48242,0.48243 0.48229149,0.48229149 0 0 0 0.48242,-0.48243 v -6.64648 a 0.48229149,0.48229149 0 0 0 -0.48242,-0.48242 z"
         id="path10316" />
    </g>
  </g>
</svg>
